<svg width="24" height="24" viewBox="0 0 24 24" fill="none" xmlns="http://www.w3.org/2000/svg">
<g clip-path="url(#clip0_2348_3224)">
<path fill-rule="evenodd" clip-rule="evenodd" d="M23.2941 4.94092C22.9286 2.64067 21.3497 1.12896 19.0588 0.706055C17.0625 0.3375 14.8235 0 12 0C9.17651 0 6.9375 0.3375 4.94121 0.706055C2.65034 1.12896 1.07139 2.64067 0.705908 4.94092L0.649338 5.2953C0.362305 7.08935 0 9.35387 0 12C0 14.8235 0.3375 17.25 0.705908 19.0591C1.1707 21.3413 2.66016 22.821 4.94121 23.2939C6.9 23.7 9.17651 24 12 24C14.8235 24 17.1 23.7 19.0588 23.2939C21.3398 22.821 22.8293 21.3413 23.2941 19.0591C23.6625 17.25 24 14.8235 24 12C24 9.35386 23.6377 7.08933 23.3507 5.29527L23.2941 4.94092ZM18.5876 5.45982C18.5876 6.26606 17.934 6.91964 17.1278 6.91964C16.392 6.91964 15.7834 6.37531 15.6826 5.66738L13.4116 5.1725L12.6336 8.78541C14.432 8.89857 16.0431 9.46497 17.2306 10.3197C17.5644 10.0257 18.0026 9.84729 18.4824 9.84729C19.5287 9.84729 20.3769 10.6955 20.3769 11.7418C20.3769 12.5053 19.9252 13.1633 19.2745 13.4632C19.2905 13.6014 19.2987 13.7411 19.2987 13.8821C19.2987 16.7085 16.0161 18.9997 11.9668 18.9997C7.9175 18.9997 4.63489 16.7085 4.63489 13.8821C4.63489 13.7492 4.64215 13.6175 4.65641 13.4871C3.9768 13.1993 3.5 12.5262 3.5 11.7418C3.5 10.6955 4.34819 9.84728 5.39448 9.84728C5.88654 9.84728 6.33477 10.0349 6.67158 10.3424C7.91403 9.43716 9.62829 8.8499 11.5386 8.77311L12.458 4.51043C12.5269 4.19078 12.8425 3.98803 13.1619 4.05818L15.9058 4.66089C16.1665 4.26289 16.6165 4 17.1278 4C17.934 4 18.5876 4.65358 18.5876 5.45982ZM14.5917 15.8833C14.7766 15.7248 15.0551 15.7453 15.2147 15.9297C15.3748 16.1146 15.3547 16.3943 15.1698 16.5544L15.1012 16.6095C15.1012 16.6095 15.0061 16.6804 14.9342 16.7281C14.7906 16.8235 14.5822 16.9471 14.312 17.0693C13.7709 17.314 12.9823 17.553 11.9746 17.5481C10.9689 17.5433 10.1933 17.3047 9.66365 17.0615C9.3993 16.9401 9.19664 16.8178 9.05718 16.7233C8.98742 16.676 8.93334 16.6356 8.89514 16.6056C8.87603 16.5906 8.82828 16.5508 8.82828 16.5508C8.64565 16.3881 8.62928 16.1076 8.79198 15.925C8.95412 15.743 9.23271 15.7263 9.41537 15.8872C9.43289 15.8997 9.44205 15.9089 9.44205 15.9089C9.44205 15.9089 9.50239 15.955 9.55411 15.9901C9.6576 16.0602 9.81786 16.1577 10.0333 16.2566C10.4631 16.454 11.1147 16.6583 11.9788 16.6624C12.8409 16.6666 13.504 16.4627 13.947 16.2623C14.1689 16.1619 14.3357 16.0624 14.4442 15.9903C14.4985 15.9543 14.5178 15.9411 14.5625 15.9064C14.574 15.8975 14.5917 15.8833 14.5917 15.8833ZM9.08575 14.3249C9.83311 14.3249 10.439 13.7191 10.439 12.9717C10.439 12.2244 9.83311 11.6185 9.08575 11.6185C8.3384 11.6185 7.73255 12.2244 7.73255 12.9717C7.73255 13.7191 8.3384 14.3249 9.08575 14.3249ZM16.1968 12.9717C16.1968 13.7191 15.5909 14.3249 14.8436 14.3249C14.0962 14.3249 13.4904 13.7191 13.4904 12.9717C13.4904 12.2244 14.0962 11.6185 14.8436 11.6185C15.5909 11.6185 16.1968 12.2244 16.1968 12.9717Z" fill="#7D9DBA"/>
</g>
<defs>
<clipPath id="clip0_2348_3224">
<rect width="24" height="24" fill="white"/>
</clipPath>
</defs>
</svg>
